M48
; DRILL file {KiCad 6.0.0-rc2} date Fri 17 Dec 2021 10:08:20 PM CET
; FORMAT={-:-/ absolute / inch / decimal}
; #@! TF.CreationDate,2021-12-17T22:08:20+01:00
; #@! TF.GenerationSoftware,Kicad,Pcbnew,6.0.0-rc2
; #@! TF.FileFunction,NonPlated,1,2,NPTH
FMAT,2
INCH
; #@! TA.AperFunction,NonPlated,NPTH,ComponentDrill
T1C0.0670
; #@! TA.AperFunction,NonPlated,NPTH,ComponentDrill
T2C0.1181
; #@! TA.AperFunction,NonPlated,NPTH,ComponentDrill
T3C0.1350
; #@! TA.AperFunction,NonPlated,NPTH,ComponentDrill
T4C0.1570
%
G90
G05
T1
X6.6115Y-5.4824
X6.6115Y-5.4824
X6.628Y-5.4809
X6.628Y-5.4809
X6.6699Y-6.1491
X6.6699Y-6.1491
X6.6863Y-6.1477
X6.6863Y-6.1477
X7.0265Y-5.4461
X7.0265Y-5.4461
X7.0429Y-5.4446
X7.0429Y-5.4446
X7.0848Y-6.1128
X7.0848Y-6.1128
X7.1013Y-6.1114
X7.1013Y-6.1114
X7.3871Y-4.81
X7.3871Y-4.81
X7.3871Y-5.4793
X7.3871Y-5.4793
X7.4036Y-4.81
X7.4036Y-4.81
X7.4036Y-5.4793
X7.4036Y-5.4793
X7.8036Y-4.81
X7.8036Y-4.81
X7.8036Y-5.4793
X7.8036Y-5.4793
X7.8202Y-4.81
X7.8202Y-4.81
X7.8202Y-5.4793
X7.8202Y-5.4793
X8.0957Y-4.6131
X8.0957Y-4.6131
X8.0957Y-5.2824
X8.0957Y-5.2824
X8.1123Y-4.6131
X8.1123Y-4.6131
X8.1123Y-5.2824
X8.1123Y-5.2824
X8.5123Y-4.6131
X8.5123Y-4.6131
X8.5123Y-5.2824
X8.5123Y-5.2824
X8.5288Y-4.6131
X8.5288Y-4.6131
X8.5288Y-5.2824
X8.5288Y-5.2824
X8.8044Y-4.8494
X8.8044Y-4.8494
X8.8044Y-5.5187
X8.8044Y-5.5187
X8.8209Y-4.8494
X8.8209Y-4.8494
X8.8209Y-5.5187
X8.8209Y-5.5187
X9.0997Y-6.0895
X9.0997Y-6.0895
X9.0997Y-6.1061
X9.0997Y-6.1061
X9.0997Y-6.5061
X9.0997Y-6.5061
X9.0997Y-6.5226
X9.0997Y-6.5226
X9.2209Y-4.8494
X9.2209Y-4.8494
X9.2209Y-5.5187
X9.2209Y-5.5187
X9.2375Y-4.8494
X9.2375Y-4.8494
X9.2375Y-5.5187
X9.2375Y-5.5187
X9.7664Y-6.0927
X9.7664Y-6.5257
X9.769Y-6.0895
X9.769Y-6.1061
X9.769Y-6.1061
X9.769Y-6.5061
X9.769Y-6.5061
X9.769Y-6.5226
T2
X6.644Y-5.6277
X6.7023Y-6.2945
X6.745Y-5.6715
X6.8034Y-6.3382
X6.8476Y-5.6969
X6.906Y-6.3636
X6.9854Y-5.5501
X7.0437Y-6.2168
X7.4068Y-4.9576
X7.4068Y-5.6269
X7.5036Y-5.01
X7.5036Y-5.6793
X7.6036Y-5.0443
X7.6036Y-5.7135
X7.7536Y-4.91
X7.7536Y-5.5793
X8.1154Y-4.7608
X8.1154Y-5.4301
X8.2123Y-4.8131
X8.2123Y-5.4824
X8.3123Y-4.8474
X8.3123Y-5.5167
X8.4623Y-4.7131
X8.4623Y-5.3824
X8.8241Y-4.997
X8.8241Y-5.6663
X8.8654Y-6.3061
X8.8997Y-6.2061
X8.9209Y-5.0494
X8.9209Y-5.7187
X8.952Y-6.1092
X8.9997Y-6.4561
X9.0209Y-5.0836
X9.0209Y-5.7529
X9.1709Y-4.9494
X9.1709Y-5.6187
X9.869Y-6.1561
X9.914Y-6.5061
X9.969Y-6.4061
X10.0006Y-6.3092
T3
X6.8272Y-5.4635
X6.8272Y-5.4635
X6.8856Y-6.1303
X6.8856Y-6.1303
X7.6036Y-4.81
X7.6036Y-4.81
X7.6036Y-5.4793
X7.6036Y-5.4793
X8.3123Y-4.6131
X8.3123Y-4.6131
X8.3123Y-5.2824
X8.3123Y-5.2824
X9.0209Y-4.8494
X9.0209Y-4.8494
X9.0209Y-5.5187
X9.0209Y-5.5187
X9.0997Y-6.3061
X9.0997Y-6.3061
X9.7664Y-6.3092
X9.769Y-6.3061
T4
X6.8272Y-5.4635
X6.8272Y-5.4635
X6.8856Y-6.1303
X6.8856Y-6.1303
X7.6036Y-4.81
X7.6036Y-4.81
X7.6036Y-5.4793
X7.6036Y-5.4793
X8.3123Y-4.6131
X8.3123Y-4.6131
X8.3123Y-5.2824
X8.3123Y-5.2824
X9.0209Y-4.8494
X9.0209Y-4.8494
X9.0209Y-5.5187
X9.0209Y-5.5187
X9.0997Y-6.3061
X9.0997Y-6.3061
X9.769Y-6.3061
X9.769Y-6.3061
T0
M30
