%TF.GenerationSoftware,KiCad,Pcbnew,6.0.0-rc2*%
%TF.CreationDate,2021-12-17T22:08:25+01:00*%
%TF.ProjectId,nano0,6e616e6f-302e-46b6-9963-61645f706362,VERSION_HERE*%
%TF.SameCoordinates,Original*%
%TF.FileFunction,Soldermask,Top*%
%TF.FilePolarity,Negative*%
%FSLAX46Y46*%
G04 Gerber Fmt 4.6, Leading zero omitted, Abs format (unit mm)*
G04 Created by KiCad (PCBNEW 6.0.0-rc2) date 2021-12-17 22:08:25*
%MOMM*%
%LPD*%
G01*
G04 APERTURE LIST*
G04 Aperture macros list*
%AMRoundRect*
0 Rectangle with rounded corners*
0 $1 Rounding radius*
0 $2 $3 $4 $5 $6 $7 $8 $9 X,Y pos of 4 corners*
0 Add a 4 corners polygon primitive as box body*
4,1,4,$2,$3,$4,$5,$6,$7,$8,$9,$2,$3,0*
0 Add four circle primitives for the rounded corners*
1,1,$1+$1,$2,$3*
1,1,$1+$1,$4,$5*
1,1,$1+$1,$6,$7*
1,1,$1+$1,$8,$9*
0 Add four rect primitives between the rounded corners*
20,1,$1+$1,$2,$3,$4,$5,0*
20,1,$1+$1,$4,$5,$6,$7,0*
20,1,$1+$1,$6,$7,$8,$9,0*
20,1,$1+$1,$8,$9,$2,$3,0*%
G04 Aperture macros list end*
%ADD10C,3.529000*%
%ADD11C,1.801800*%
%ADD12C,2.132000*%
%ADD13C,4.087800*%
%ADD14C,2.386000*%
%ADD15C,3.100000*%
%ADD16RoundRect,0.050000X-0.876300X0.876300X-0.876300X-0.876300X0.876300X-0.876300X0.876300X0.876300X0*%
%ADD17C,1.852600*%
G04 APERTURE END LIST*
D10*
%TO.C,S1*%
X174893365Y-155708351D03*
D11*
X180372436Y-155228994D03*
X169414294Y-156187708D03*
D12*
X179543147Y-151487032D03*
X174379146Y-149830802D03*
%TD*%
D13*
%TO.C,S2*%
X174893365Y-155708351D03*
D11*
X179954034Y-155265600D03*
X169832696Y-156151102D03*
D14*
X176980948Y-150426306D03*
X170876488Y-153510080D03*
%TD*%
D10*
%TO.C,S3*%
X174893365Y-155708351D03*
D11*
X169414294Y-156187708D03*
X180372436Y-155228994D03*
D15*
X170239226Y-159879860D03*
X175411942Y-161635709D03*
%TD*%
D13*
%TO.C,S4*%
X174893365Y-155708351D03*
D11*
X169832696Y-156151102D03*
X179954034Y-155265600D03*
D15*
X172805782Y-160990396D03*
X178910242Y-157906622D03*
%TD*%
D10*
%TO.C,S5*%
X173411717Y-138773041D03*
D11*
X178890788Y-138293684D03*
X167932646Y-139252398D03*
D12*
X178061499Y-134551722D03*
X172897498Y-132895492D03*
%TD*%
D13*
%TO.C,S6*%
X173411717Y-138773041D03*
D11*
X178472386Y-138330290D03*
X168351048Y-139215792D03*
D14*
X175499300Y-133490996D03*
X169394840Y-136574770D03*
%TD*%
D10*
%TO.C,S7*%
X173411717Y-138773041D03*
D11*
X167932646Y-139252398D03*
X178890788Y-138293684D03*
D15*
X168757578Y-142944550D03*
X173930294Y-144700399D03*
%TD*%
D13*
%TO.C,S8*%
X173411717Y-138773041D03*
D11*
X168351048Y-139215792D03*
X178472386Y-138330290D03*
D15*
X171324134Y-144055086D03*
X177428594Y-140971312D03*
%TD*%
D10*
%TO.C,S9*%
X193132000Y-139174000D03*
D11*
X198632000Y-139174000D03*
X187632000Y-139174000D03*
D12*
X198132000Y-135374000D03*
X193132000Y-133274000D03*
%TD*%
D13*
%TO.C,S10*%
X193132000Y-139174000D03*
D11*
X198212000Y-139174000D03*
X188052000Y-139174000D03*
D14*
X195672000Y-134094000D03*
X189322000Y-136634000D03*
%TD*%
D10*
%TO.C,S11*%
X193132000Y-139174000D03*
D11*
X187632000Y-139174000D03*
X198632000Y-139174000D03*
D15*
X188132000Y-142924000D03*
X193132000Y-145124000D03*
%TD*%
D13*
%TO.C,S12*%
X193132000Y-139174000D03*
D11*
X188052000Y-139174000D03*
X198212000Y-139174000D03*
D15*
X190592000Y-144254000D03*
X196942000Y-141714000D03*
%TD*%
D10*
%TO.C,S13*%
X193132000Y-122174000D03*
D11*
X198632000Y-122174000D03*
X187632000Y-122174000D03*
D12*
X198132000Y-118374000D03*
X193132000Y-116274000D03*
%TD*%
D13*
%TO.C,S14*%
X193132000Y-122174000D03*
D11*
X198212000Y-122174000D03*
X188052000Y-122174000D03*
D14*
X195672000Y-117094000D03*
X189322000Y-119634000D03*
%TD*%
D10*
%TO.C,S15*%
X193132000Y-122174000D03*
D11*
X187632000Y-122174000D03*
X198632000Y-122174000D03*
D15*
X188132000Y-125924000D03*
X193132000Y-128124000D03*
%TD*%
D13*
%TO.C,S16*%
X193132000Y-122174000D03*
D11*
X188052000Y-122174000D03*
X198212000Y-122174000D03*
D15*
X190592000Y-127254000D03*
X196942000Y-124714000D03*
%TD*%
D10*
%TO.C,S17*%
X211132000Y-134174000D03*
D11*
X216632000Y-134174000D03*
X205632000Y-134174000D03*
D12*
X216132000Y-130374000D03*
X211132000Y-128274000D03*
%TD*%
D13*
%TO.C,S18*%
X211132000Y-134174000D03*
D11*
X216212000Y-134174000D03*
X206052000Y-134174000D03*
D14*
X213672000Y-129094000D03*
X207322000Y-131634000D03*
%TD*%
D10*
%TO.C,S19*%
X211132000Y-134174000D03*
D11*
X205632000Y-134174000D03*
X216632000Y-134174000D03*
D15*
X206132000Y-137924000D03*
X211132000Y-140124000D03*
%TD*%
D13*
%TO.C,S20*%
X211132000Y-134174000D03*
D11*
X206052000Y-134174000D03*
X216212000Y-134174000D03*
D15*
X208592000Y-139254000D03*
X214942000Y-136714000D03*
%TD*%
D10*
%TO.C,S21*%
X211132000Y-117174000D03*
D11*
X216632000Y-117174000D03*
X205632000Y-117174000D03*
D12*
X216132000Y-113374000D03*
X211132000Y-111274000D03*
%TD*%
D13*
%TO.C,S22*%
X211132000Y-117174000D03*
D11*
X216212000Y-117174000D03*
X206052000Y-117174000D03*
D14*
X213672000Y-112094000D03*
X207322000Y-114634000D03*
%TD*%
D10*
%TO.C,S23*%
X211132000Y-117174000D03*
D11*
X205632000Y-117174000D03*
X216632000Y-117174000D03*
D15*
X206132000Y-120924000D03*
X211132000Y-123124000D03*
%TD*%
D13*
%TO.C,S24*%
X211132000Y-117174000D03*
D11*
X206052000Y-117174000D03*
X216212000Y-117174000D03*
D15*
X208592000Y-122254000D03*
X214942000Y-119714000D03*
%TD*%
D10*
%TO.C,S25*%
X229132000Y-140174000D03*
D11*
X234632000Y-140174000D03*
X223632000Y-140174000D03*
D12*
X234132000Y-136374000D03*
X229132000Y-134274000D03*
%TD*%
D13*
%TO.C,S26*%
X229132000Y-140174000D03*
D11*
X234212000Y-140174000D03*
X224052000Y-140174000D03*
D14*
X231672000Y-135094000D03*
X225322000Y-137634000D03*
%TD*%
D10*
%TO.C,S27*%
X229132000Y-140174000D03*
D11*
X223632000Y-140174000D03*
X234632000Y-140174000D03*
D15*
X224132000Y-143924000D03*
X229132000Y-146124000D03*
%TD*%
D13*
%TO.C,S28*%
X229132000Y-140174000D03*
D11*
X224052000Y-140174000D03*
X234212000Y-140174000D03*
D15*
X226592000Y-145254000D03*
X232942000Y-142714000D03*
%TD*%
D10*
%TO.C,S29*%
X229132000Y-123174000D03*
D11*
X234632000Y-123174000D03*
X223632000Y-123174000D03*
D12*
X234132000Y-119374000D03*
X229132000Y-117274000D03*
%TD*%
D13*
%TO.C,S30*%
X229132000Y-123174000D03*
D11*
X234212000Y-123174000D03*
X224052000Y-123174000D03*
D14*
X231672000Y-118094000D03*
X225322000Y-120634000D03*
%TD*%
D10*
%TO.C,S31*%
X229132000Y-123174000D03*
D11*
X223632000Y-123174000D03*
X234632000Y-123174000D03*
D15*
X224132000Y-126924000D03*
X229132000Y-129124000D03*
%TD*%
D13*
%TO.C,S32*%
X229132000Y-123174000D03*
D11*
X224052000Y-123174000D03*
X234212000Y-123174000D03*
D15*
X226592000Y-128254000D03*
X232942000Y-125714000D03*
%TD*%
D10*
%TO.C,S33*%
X231132000Y-160174000D03*
D11*
X231132000Y-165674000D03*
X231132000Y-154674000D03*
D12*
X234932000Y-165174000D03*
X237032000Y-160174000D03*
%TD*%
D13*
%TO.C,S34*%
X231132000Y-160174000D03*
D11*
X231132000Y-165254000D03*
X231132000Y-155094000D03*
D14*
X236212000Y-162714000D03*
X233672000Y-156364000D03*
%TD*%
D10*
%TO.C,S35*%
X231132000Y-160174000D03*
D11*
X231132000Y-154674000D03*
X231132000Y-165674000D03*
D15*
X227382000Y-155174000D03*
X225182000Y-160174000D03*
%TD*%
D13*
%TO.C,S36*%
X231132000Y-160174000D03*
D11*
X231132000Y-155094000D03*
X231132000Y-165254000D03*
D15*
X226052000Y-157634000D03*
X228592000Y-163984000D03*
%TD*%
D10*
%TO.C,S37*%
X248132000Y-160174000D03*
D11*
X248132000Y-154674000D03*
X248132000Y-165674000D03*
D12*
X244332000Y-155174000D03*
X242232000Y-160174000D03*
%TD*%
D13*
%TO.C,S38*%
X248132000Y-160174000D03*
D11*
X248132000Y-155094000D03*
X248132000Y-165254000D03*
D14*
X243052000Y-157634000D03*
X245592000Y-163984000D03*
%TD*%
D10*
%TO.C,S39*%
X248065600Y-160254000D03*
D11*
X248065600Y-165754000D03*
X248065600Y-154754000D03*
D15*
X251815600Y-165254000D03*
X254015600Y-160254000D03*
%TD*%
D13*
%TO.C,S40*%
X248132000Y-160174000D03*
D11*
X248132000Y-165254000D03*
X248132000Y-155094000D03*
D15*
X253212000Y-162714000D03*
X250672000Y-156364000D03*
%TD*%
D16*
%TO.C,MCU1*%
X254802000Y-118704000D03*
D17*
X254802000Y-121244000D03*
X254802000Y-123784000D03*
X254802000Y-126324000D03*
X254802000Y-128864000D03*
X254802000Y-131404000D03*
X254802000Y-133944000D03*
X254802000Y-136484000D03*
X254802000Y-139024000D03*
X254802000Y-141564000D03*
X254802000Y-144104000D03*
X254802000Y-146644000D03*
X239562000Y-118704000D03*
X239562000Y-121244000D03*
X239562000Y-123784000D03*
X239562000Y-126324000D03*
X239562000Y-128864000D03*
X239562000Y-131404000D03*
X239562000Y-133944000D03*
X239562000Y-136484000D03*
X239562000Y-139024000D03*
X239562000Y-141564000D03*
X239562000Y-144104000D03*
X239562000Y-146644000D03*
%TD*%
M02*
