M48
; DRILL file {KiCad 6.0.0-rc2} date Fri 17 Dec 2021 10:08:20 PM CET
; FORMAT={-:-/ absolute / inch / decimal}
; #@! TF.CreationDate,2021-12-17T22:08:20+01:00
; #@! TF.GenerationSoftware,Kicad,Pcbnew,6.0.0-rc2
; #@! TF.FileFunction,Plated,1,2,PTH
FMAT,2
INCH
; #@! TA.AperFunction,Plated,PTH,ComponentDrill
T1C0.0430
; #@! TA.AperFunction,Plated,PTH,ComponentDrill
T2C0.0500
; #@! TA.AperFunction,Plated,PTH,ComponentDrill
T3C0.0590
%
G90
G05
T1
X9.4316Y-4.6734
X9.4316Y-4.7734
X9.4316Y-4.8734
X9.4316Y-4.9734
X9.4316Y-5.0734
X9.4316Y-5.1734
X9.4316Y-5.2734
X9.4316Y-5.3734
X9.4316Y-5.4734
X9.4316Y-5.5734
X9.4316Y-5.6734
X9.4316Y-5.7734
X10.0316Y-4.6734
X10.0316Y-4.7734
X10.0316Y-4.8734
X10.0316Y-4.9734
X10.0316Y-5.0734
X10.0316Y-5.1734
X10.0316Y-5.2734
X10.0316Y-5.3734
X10.0316Y-5.4734
X10.0316Y-5.5734
X10.0316Y-5.6734
X10.0316Y-5.7734
T2
X6.807Y-5.2321
X6.8653Y-5.8989
X7.0103Y-5.2973
X7.0686Y-5.9641
X7.6036Y-4.5777
X7.6036Y-5.247
X7.8005Y-4.6604
X7.8005Y-5.3297
X8.3123Y-4.3809
X8.3123Y-5.0502
X8.5091Y-4.4635
X8.5091Y-5.1328
X9.0209Y-4.6171
X9.0209Y-5.2864
X9.2178Y-4.6998
X9.2178Y-5.3691
X9.2493Y-6.5029
X9.332Y-6.3061
X9.5367Y-6.3061
X9.6194Y-6.1092
T3
X6.6691Y-5.377
X6.7274Y-6.0437
X6.9094Y-5.2556
X6.9678Y-5.9223
X7.4536Y-4.71
X7.4536Y-5.3793
X7.7036Y-4.61
X7.7036Y-5.2793
X8.1623Y-4.5131
X8.1623Y-5.1824
X8.4123Y-4.4131
X8.4123Y-5.0824
X8.8709Y-4.7494
X8.8709Y-5.4187
X9.1209Y-4.6494
X9.1209Y-5.3187
X9.1997Y-6.1561
X9.2997Y-6.4061
X9.569Y-6.2061
X9.669Y-6.4561
T0
M30
